<!-- Generator: Adobe Illustrator 20.1.0, SVG Export Plug-In  -->
<svg version="1.1"
	 xmlns="http://www.w3.org/2000/svg" xmlns:xlink="http://www.w3.org/1999/xlink" xmlns:a="http://ns.adobe.com/AdobeSVGViewerExtensions/3.0/"
	 x="0px" y="0px" width="35px" height="44px" viewBox="0 0 35 44" style="enable-background:new 0 0 35 44;" xml:space="preserve">
<g id="Page-1_1_">
	<g id="icon_account-main_xxl_black_1_">
		<path id="Shape_4_" style="opacity:0.35;fill:#0B1F35;" d="M7,19h20v4H7V19z M7,11h12v4H7V11z"/>
		<path id="Shape_3_" style="fill:#0B1F35;" d="M31.5,44h-28C1.6,44,0,42.4,0,40.5v-37C0,1.6,1.6,0,3.5,0h21.2L35,10.3v30.2
			C35,42.4,33.4,44,31.5,44z M3.5,1C2.1,1,1,2.1,1,3.5v37C1,41.9,2.1,43,3.5,43h28c1.4,0,2.5-1.1,2.5-2.5V10.7L24.3,1H3.5z"/>
		<circle id="Oval_1_" style="opacity:0.3;fill:#0B1F35;" cx="10.5" cy="32.5" r="3.5"/>
	</g>
</g>
</svg>
