<!-- Generator: Adobe Illustrator 20.1.0, SVG Export Plug-In  -->
<svg version="1.1"
	 xmlns="http://www.w3.org/2000/svg" xmlns:xlink="http://www.w3.org/1999/xlink" xmlns:a="http://ns.adobe.com/AdobeSVGViewerExtensions/3.0/"
	 x="0px" y="0px" width="47px" height="41px" viewBox="0 0 47 41" style="enable-background:new 0 0 47 41;" xml:space="preserve">
<g id="Page-1_1_">
	<g id="icon_card-list_xxl_black_1_">
		<path id="Shape_10_" style="fill:#0B1F35;" d="M30.5,25h-26C2,25,0,23,0,20.5v-16C0,2,2,0,4.5,0h26C33,0,35,2,35,4.5v16C35,23,33,25,30.5,25
			z M4.5,1C2.6,1,1,2.6,1,4.5v16C1,22.4,2.6,24,4.5,24h26c1.9,0,3.5-1.6,3.5-3.5v-16C34,2.6,32.4,1,30.5,1H4.5z"/>
		<polygon id="Shape_9_" style="opacity:0.3;fill:#0B1F35;" points="0.5,8 34.5,8 34.5,12 0.5,12 		"/>
		<path id="Shape_8_" style="fill:#0B1F35;" d="M42.5,41h-26C14,41,12,39,12,36.5V33h1v3.5c0,1.9,1.6,3.5,3.5,3.5h26c1.9,0,3.5-1.6,3.5-3.5
			v-16c0-1.9-1.6-3.5-3.5-3.5H41v-1h1.5c2.5,0,4.5,2,4.5,4.5v16C47,39,45,41,42.5,41z"/>
		<path id="Shape_7_" style="fill:#0B1F35;" d="M36.5,33h-26C8,33,6,31,6,28.5V25h1v3.5c0,1.9,1.6,3.5,3.5,3.5h26c1.9,0,3.5-1.6,3.5-3.5v-16
			c0-1.9-1.6-3.5-3.5-3.5H35V8h1.5C39,8,41,10,41,12.5v16C41,31,39,33,36.5,33z"/>
		<polygon id="Shape_6_" style="opacity:0.3;fill:#0B1F35;" points="5,17 11,17 11,20 5,20 		"/>
	</g>
</g>
</svg>
