<!-- Generator: Adobe Illustrator 20.1.0, SVG Export Plug-In  -->
<svg version="1.1"
	 xmlns="http://www.w3.org/2000/svg" xmlns:xlink="http://www.w3.org/1999/xlink" xmlns:a="http://ns.adobe.com/AdobeSVGViewerExtensions/3.0/"
	 x="0px" y="0px" width="48px" height="47px" viewBox="0 0 48 47" style="enable-background:new 0 0 48 47;" xml:space="preserve">
<g id="Page-1_1_">
	<g id="icon_chat_xxl_black_1_">
		<path id="Shape_6_" style="opacity:0.3;fill:#0B1F35" d="M48,26.5c0-4-2.2-7.7-5.6-10.2c0,0.4,0.1,0.8,0.1,1.3c0,9.4-9.4,17-21,17c-2,0-4-0.2-5.9-0.7
			c3.1,4,8.6,6.7,14.9,6.7c1.1,0,2.1-0.1,3.1-0.2L42,47V37C45.7,34.4,48,30.7,48,26.5z"/>
		<path id="Shape_5_" style="fill:#0B1F35;" d="M6,41.6v-12C2.1,26.3,0,22,0,17.5C0,7.9,9.6,0,21.5,0S43,7.9,43,17.5S33.4,35,21.5,35
			c-2,0-4-0.2-6-0.7L6,41.6z M21.5,1C10.2,1,1,8.4,1,17.5c0,4.3,2.1,8.4,5.8,11.5L7,29.2v10.4l8.3-6.4l0.2,0.1c1.9,0.5,4,0.7,6,0.7
			C32.8,34,42,26.6,42,17.5S32.8,1,21.5,1z"/>
		<path id="Shape_4_" style="opacity:0.3;fill:#0B1F35" d="M11,11h20v4H11V11z M11,20h14v4H11V20z"/>
	</g>
</g>
</svg>
