<!-- Generator: Adobe Illustrator 20.1.0, SVG Export Plug-In  -->
<svg version="1.1"
	 xmlns="http://www.w3.org/2000/svg" xmlns:xlink="http://www.w3.org/1999/xlink" xmlns:a="http://ns.adobe.com/AdobeSVGViewerExtensions/3.0/"
	 x="0px" y="0px" width="46px" height="44px" viewBox="0 0 46 44" style="enable-background:new 0 0 46 44;" xml:space="preserve">
<g id="Page-1_1_">
	<g id="icon_filter_xxl_black_1_">
		<path id="Shape_17_" style="fill:#0B1F35;" d="M5,27c-2.8,0-5,2.2-5,5s2.2,5,5,5s5-2.2,5-5S7.8,27,5,27z M5,36c-2.2,0-4-1.8-4-4s1.8-4,4-4
			s4,1.8,4,4S7.2,36,5,36z"/>
		<path id="Shape_16_" style="fill:#0B1F35;" d="M23,7c-2.8,0-5,2.2-5,5s2.2,5,5,5s5-2.2,5-5S25.8,7,23,7z M23,16c-2.2,0-4-1.8-4-4s1.8-4,4-4
			s4,1.8,4,4S25.2,16,23,16z"/>
		<path id="Shape_15_" style="fill:#0B1F35;" d="M41,19c-2.8,0-5,2.2-5,5s2.2,5,5,5s5-2.2,5-5S43.8,19,41,19z M41,28c-2.2,0-4-1.8-4-4
			s1.8-4,4-4s4,1.8,4,4S43.2,28,41,28z"/>
		<path id="Shape_14_" style="opacity:0.3;fill:#0B1F35;" d="M3,36.6V44h4v-7.4C6.4,36.8,5.7,37,5,37S3.6,36.8,3,36.6z"/>
		<path id="Shape_13_" style="opacity:0.3;fill:#0B1F35;" d="M3,27.4C3.6,27.2,4.3,27,5,27s1.4,0.2,2,0.4V0H3V27.4z"/>
		<path id="Shape_12_" style="opacity:0.3;fill:#0B1F35;" d="M21,7.4C21.6,7.2,22.3,7,23,7s1.4,0.2,2,0.4V0h-4V7.4z"/>
		<path id="Shape_11_" style="opacity:0.3;fill:#0B1F35;" d="M21,16.6V44h4V16.6c-0.6,0.3-1.3,0.4-2,0.4S21.6,16.8,21,16.6z"/>
		<path id="Shape_10_" style="opacity:0.3;fill:#0B1F35;" d="M39,0v19.4c0.6-0.3,1.3-0.4,2-0.4s1.4,0.2,2,0.4V0H39z"/>
		<path id="Shape_9_" style="opacity:0.3;fill:#0B1F35;" d="M39,28.6V44h4V28.6c-0.6,0.3-1.3,0.4-2,0.4S39.6,28.8,39,28.6z"/>
	</g>
</g>
</svg>
