<!-- Generator: Adobe Illustrator 20.1.0, SVG Export Plug-In  -->
<svg version="1.1"
	 xmlns="http://www.w3.org/2000/svg" xmlns:xlink="http://www.w3.org/1999/xlink" xmlns:a="http://ns.adobe.com/AdobeSVGViewerExtensions/3.0/"
	 x="0px" y="0px" width="41px" height="45.2px" viewBox="0 0 41 45.2" style="enable-background:new 0 0 41 45.2;"
	 xml:space="preserve">

<g id="Page-1_1_">
	<g id="icon_ready-to-send_xxl_black_1_">
		<path id="Shape_6_" style="fill:#0B1F35;" d="M36.5,45.2h-32c-2.5,0-4.5-2-4.5-4.5v-24c0-1.4,1.1-2.5,2.5-2.5H12v1H2.5
			c-0.8,0-1.5,0.7-1.5,1.5v24c0,1.9,1.6,3.5,3.5,3.5h32c1.9,0,3.5-1.6,3.5-3.5v-24c0-0.8-0.7-1.5-1.5-1.5H29v-1h9.5
			c1.4,0,2.5,1.1,2.5,2.5v24C41,43.2,39,45.2,36.5,45.2z"/>
		<path id="Shape_5_" style="fill:#0B1F35;" d="M20.5,37.2c-3.4,0-6.2-2.6-6.5-6H0.5v-1H15v0.5c0,3,2.5,5.5,5.5,5.5s5.5-2.5,5.5-5.5v-0.5h14.5
			v1H27C26.7,34.6,23.9,37.2,20.5,37.2z"/>
		<polygon id="Shape_4_" style="opacity:0.3;fill:#0B1F35;" points="12.1,8.3 12.9,9.1 20,1.9 20,25.2 21,25.2 21,1.9 28.1,9.1 28.9,8.3 20.5,0 		"/>
	</g>
</g>
</svg>
