<!-- Generator: Adobe Illustrator 20.1.0, SVG Export Plug-In  -->
<svg version="1.1"
	 xmlns="http://www.w3.org/2000/svg" xmlns:xlink="http://www.w3.org/1999/xlink" xmlns:a="http://ns.adobe.com/AdobeSVGViewerExtensions/3.0/"
	 x="0px" y="0px" width="34.1px" height="41.5px" viewBox="0 0 34.1 41.5" style="enable-background:new 0 0 34.1 41.5;"
	 xml:space="preserve">
<g>
	<path style="opacity:0.3;fill:#0B1F35;" d="M26,15.7L8.6,33.1c4.8,4.8,12.6,4.8,17.4,0C30.8,28.3,30.8,20.5,26,15.7z"/>
	<polygon style="fill:#0B1F35;" points="22.2,4.7 18.4,4.7 18.4,3.7 21.2,3.7 21.2,1 13,1 13,3.7 16.2,3.7 16.2,4.7 12,4.7 12,0 22.2,0 	"/>
	<rect x="18.4" y="4.4" style="fill:#0B1F35;" width="1" height="3.6"/>
	<path style="fill:#0B1F35;" d="M17.1,27.7c-1.8,0-3.3-1.5-3.3-3.3s1.5-3.3,3.3-3.3s3.3,1.5,3.3,3.3S18.9,27.7,17.1,27.7z M17.1,22.2
		c-1.2,0-2.3,1-2.3,2.3s1,2.3,2.3,2.3s2.3-1,2.3-2.3S18.3,22.2,17.1,22.2z"/>
	<rect x="17.8" y="18.2" transform="matrix(0.7071 -0.7071 0.7071 0.7071 -6.59 21.579)" style="fill:#0B1F35;" width="10" height="1"/>
	<rect x="30.5" y="7.7" transform="matrix(0.7072 -0.707 0.707 0.7072 2.2989 24.7589)" style="fill:#0B1F35;" width="1" height="3.9"/>
	<rect x="27.9" y="10.4" transform="matrix(0.7071 -0.7071 0.7071 0.7071 0.9477 24.1628)" style="fill:#0B1F35;" width="3.5" height="1"/>
	<path style="fill:none;stroke:#231F20;" d="M28.2,18"/>
	<path style="fill:#0B1F35;" d="M17.1,41.5C7.7,41.5,0,33.8,0,24.4C0,15,7.7,7.3,17.1,7.3S34.1,15,34.1,24.4C34.1,33.8,26.5,41.5,17.1,41.5z
		 M17.1,8.3C8.2,8.3,1,15.6,1,24.4c0,8.9,7.2,16.1,16.1,16.1s16.1-7.2,16.1-16.1C33.1,15.6,25.9,8.3,17.1,8.3z"/>
</g>
</svg>
