<?xml version="1.0" encoding="UTF-8"?><!DOCTYPE svg PUBLIC "-//W3C//DTD SVG 1.1//EN" "http://www.w3.org/Graphics/SVG/1.1/DTD/svg11.dtd"><svg xmlns="http://www.w3.org/2000/svg"><symbol id="ico-account" viewBox="0 0 35 44">
    <g fill="#0b1f35">
        <path d="M7 19h20v4H7v-4zm0-8h12v4H7v-4z" opacity=".35"/>
        <path d="M31.5 44h-28C1.6 44 0 42.4 0 40.5v-37C0 1.6 1.6 0 3.5 0h21.2L35 10.3v30.2c0 1.9-1.6 3.5-3.5 3.5zM3.5 1C2.1 1 1 2.1 1 3.5v37C1 41.9 2.1 43 3.5 43h28c1.4 0 2.5-1.1 2.5-2.5V10.7L24.3 1H3.5z"/>
        <circle cx="10.5" cy="32.5" r="3.5" opacity=".3"/>
    </g>
</symbol><symbol id="ico-card-list" viewBox="0 0 47 41">
    <g fill="#0b1f35">
        <path d="M30.5 25h-26C2 25 0 23 0 20.5v-16C0 2 2 0 4.5 0h26C33 0 35 2 35 4.5v16c0 2.5-2 4.5-4.5 4.5zM4.5 1C2.6 1 1 2.6 1 4.5v16C1 22.4 2.6 24 4.5 24h26c1.9 0 3.5-1.6 3.5-3.5v-16C34 2.6 32.4 1 30.5 1h-26z"/>
        <path opacity=".3" d="M.5 8h34v4H.5z"/>
        <path d="M42.5 41h-26C14 41 12 39 12 36.5V33h1v3.5c0 1.9 1.6 3.5 3.5 3.5h26c1.9 0 3.5-1.6 3.5-3.5v-16c0-1.9-1.6-3.5-3.5-3.5H41v-1h1.5c2.5 0 4.5 2 4.5 4.5v16c0 2.5-2 4.5-4.5 4.5z"/>
        <path d="M36.5 33h-26C8 33 6 31 6 28.5V25h1v3.5c0 1.9 1.6 3.5 3.5 3.5h26c1.9 0 3.5-1.6 3.5-3.5v-16c0-1.9-1.6-3.5-3.5-3.5H35V8h1.5C39 8 41 10 41 12.5v16c0 2.5-2 4.5-4.5 4.5z"/>
        <path opacity=".3" d="M5 17h6v3H5z"/>
    </g>
</symbol><symbol id="ico-chat" viewBox="0 0 48 47">
    <g fill="#0b1f35">
        <path d="M48 26.5c0-4-2.2-7.7-5.6-10.2 0 .4.1.8.1 1.3 0 9.4-9.4 17-21 17-2 0-4-.2-5.9-.7 3.1 4 8.6 6.7 14.9 6.7 1.1 0 2.1-.1 3.1-.2L42 47V37c3.7-2.6 6-6.3 6-10.5z" opacity=".3"/>
        <path d="M6 41.6v-12C2.1 26.3 0 22 0 17.5 0 7.9 9.6 0 21.5 0S43 7.9 43 17.5 33.4 35 21.5 35c-2 0-4-.2-6-.7L6 41.6zM21.5 1C10.2 1 1 8.4 1 17.5c0 4.3 2.1 8.4 5.8 11.5l.2.2v10.4l8.3-6.4.2.1c1.9.5 4 .7 6 .7C32.8 34 42 26.6 42 17.5S32.8 1 21.5 1z"/>
        <path d="M11 11h20v4H11v-4zm0 9h14v4H11v-4z" opacity=".3"/>
    </g>
</symbol><symbol id="ico-filter" viewBox="0 0 46 44">
    <g fill="#0b1f35">
        <path d="M5 27c-2.8 0-5 2.2-5 5s2.2 5 5 5 5-2.2 5-5-2.2-5-5-5zm0 9c-2.2 0-4-1.8-4-4s1.8-4 4-4 4 1.8 4 4-1.8 4-4 4z"/>
        <path d="M23 7c-2.8 0-5 2.2-5 5s2.2 5 5 5 5-2.2 5-5-2.2-5-5-5zm0 9c-2.2 0-4-1.8-4-4s1.8-4 4-4 4 1.8 4 4-1.8 4-4 4z"/>
        <path d="M41 19c-2.8 0-5 2.2-5 5s2.2 5 5 5 5-2.2 5-5-2.2-5-5-5zm0 9c-2.2 0-4-1.8-4-4s1.8-4 4-4 4 1.8 4 4-1.8 4-4 4z"/>
        <path d="M3 36.6V44h4v-7.4c-.6.2-1.3.4-2 .4s-1.4-.2-2-.4z" opacity=".3"/>
        <path d="M3 27.4c.6-.2 1.3-.4 2-.4s1.4.2 2 .4V0H3v27.4z" opacity=".3"/>
        <path d="M21 7.4c.6-.2 1.3-.4 2-.4s1.4.2 2 .4V0h-4v7.4z" opacity=".3"/>
        <path d="M21 16.6V44h4V16.6c-.6.3-1.3.4-2 .4s-1.4-.2-2-.4z" opacity=".3"/>
        <path d="M39 0v19.4c.6-.3 1.3-.4 2-.4s1.4.2 2 .4V0h-4z" opacity=".3"/>
        <path d="M39 28.6V44h4V28.6c-.6.3-1.3.4-2 .4s-1.4-.2-2-.4z" opacity=".3"/>
    </g>
</symbol><symbol id="ico-logo" viewBox="0 0 448.7 132.9">
    <style>
        .st0{fill:#ee3524}
    </style>
    <path class="st0" d="M42.6 0c9 0 11.9 6.5 14.3 13 1 2.7 24.5 67.1 25.2 69 .2.5.1 1.4-.8 1.7-.9.3-13 5.1-13.7 5.3s-1.4-.1-1.7-.8c-.3-.7-5.3-14.7-5.9-16.2H25.2c-.6 1.6-5.7 15.6-5.9 16.2-.2.6-1 1.1-1.7.8s-13-5-13.7-5.3-1-1.1-.8-1.7c.9-2.4 24-65.7 25.2-69 2.3-6.4 5.3-13 14.3-13zM1.3 115.1c-.7 0-1.3.6-1.3 1.4v15c0 .8.6 1.4 1.3 1.4h82.6c.7 0 1.3-.6 1.3-1.4v-15c0-.8-.6-1.4-1.3-1.4H1.3M42.6 21L30.8 56.3h23.7L42.7 21h-.1zm307.3 51.8c0 4-2.2 6.6-6.3 6.6-1.6 0-2.9 0-5-.6V66.7c.9-.2 2.9-.4 5-.4 4.2.3 6.3 2.2 6.3 6.5zm8.4-.5c0-7.4-4.3-12.5-13.5-12.5-2.2 0-3.8.2-6.2.8V49.9c1.5-.2 4.1-.4 6.9-.4 2.7 0 6.1.2 9.1.5l.2-6.2c-3.4-.8-8.3-1.2-12.1-1.2-3.8 0-9.6.9-12.4 1.7v39.4c4.3 1.6 8.6 2.3 12.9 2.3 9.9 0 15.1-5.3 15.1-13.7zm-94.9-2.2c0 5.5-2.2 9.1-5.8 9.1-1.5 0-2.3-.1-4-.6V62.1c1.9-.9 2.9-.9 4.4-.9 3.6-.1 5.4 2.9 5.4 8.9m-27.5.2c0-6 1.8-9.2 5.4-9.2 1.5 0 2.5 0 4.4.9v16.5c-1.7.6-2.5.6-4 .6-4.1.1-5.8-3.3-5.8-8.8M253.6 95V84.2c1 .6 3 1.5 6.3 1.5 6.7 0 11.6-5.5 11.6-15.7 0-10.9-4.9-15.6-12.9-15.6-2 0-3.4.2-5 1V42.7h-7.8v12.8c-1.6-.8-3-1-5-1-8 0-12.9 4.9-12.9 15.7 0 10.1 4.4 15.5 11.6 15.5 3.4 0 5.4-.9 6.4-1.5V95h7.7m-59.5-9.8V56.4c-4.3-1.3-7.6-1.8-12-1.8s-7.6.6-11.9 1.8v14.8c0 4-.1 5.2-.5 6.5-.4 1.1-1 2.5-2.6 3.6l2.1 4.6c6.3-1.8 8.7-4.5 8.7-13.3V61.7c2.1-.3 2.5-.4 4.2-.4s2 .1 4.1.4v23.5h7.9zm96.8-6.3c-1.7.6-2.9.7-4.2.7-2.8 0-4.4-1.1-4.4-4 0-3 2-4 5.9-4 .9 0 1.9.1 2.3.3v2.2c0 2.3.1 3.8.4 4.8zm10 3.5c-2.1-3.2-2.6-5-2.6-9v-8.1c0-4.3-.5-5.9-1.7-7.6-1.6-2.2-4.2-3.2-9.2-3.2-3.5 0-6.9.4-10.1 1.2l1.2 5.8c2.2-.3 4.5-.6 6.2-.6 5.2 0 5.8.8 5.8 4.7v1.5c-1.2-.3-2.5-.5-4-.5-7.9 0-12 3.8-12 10.2 0 5.9 4.4 9.2 9.8 9.2 2 0 4.1-.4 5.8-1.1 1-.4 1.4-.7 2.7-1.6.8 1.2 2.4 2.3 3 2.5l5.1-3.4zm76.7-3.5c-1.7.6-2.9.7-4.2.7-2.8 0-4.4-1.1-4.4-4 0-3 2-4 5.9-4 1 0 1.9.1 2.3.3v2.2c0 2.3.2 3.8.4 4.8zm10 3.5c-2.1-3.2-2.6-5-2.6-9v-8.1c0-4.3-.5-5.9-1.6-7.6-1.6-2.2-4.3-3.2-9.2-3.2-3.5 0-6.9.4-10.1 1.2l1.2 5.8c2.2-.3 4.5-.6 6.2-.6 5.2 0 5.8.8 5.8 4.7v1.5c-1.1-.3-2.5-.5-4-.5-7.9 0-12 3.8-12 10.2 0 5.9 4.4 9.2 9.8 9.2 2 0 4.1-.4 5.8-1.1 1-.4 1.4-.7 2.7-1.6.8 1.2 2.4 2.3 3 2.5l5-3.4zm-171.2-7.5c0 2.9-1 5-4.8 5-1.3 0-1.8 0-3.4-.5v-8.6c2.1-.4 2.2-.5 3.4-.5 3.6 0 4.8 1.8 4.8 4.6zM200.3 55v28.6c3.7 1.6 7.8 2.3 11.5 2.3 8.4 0 12.8-4.3 12.8-11.4 0-6.4-4-10.4-11.4-10.4-1.9 0-3 .2-5 .7V55h-7.9zm216.1 30.2V55.3h-7.9v11.3h-8.9V55.3h-7.9v29.9h7.9V73h8.9v12.2h7.9zm32.3 0s-4.3-9.2-5.3-11.2c-1.2-2.3-2.3-4-4.7-4.6v-.1c1.6-.3 2.9-1.3 4.3-4.3 1.3-2.9 1.7-3.6 2.5-4.2.8-.7 1.8-.4 1.8-.4l.4-5.4c-1.1-.2-2.4-.2-3.7-.1-2.1.1-3.2.7-4.3 1.8-.8.8-1.4 2-2.1 3.4-.7 1.5-1.3 2.7-2.1 4.3-.8 1.6-1.1 2.3-3.2 2.3H431V55.3h-7.9v29.9h7.9V73h1.1c2.2 0 2.6.6 3.8 2.9 1.4 2.8 4 9.3 4 9.3h8.8zm-293.1 0h9.1L151 43.4c-1.4-.5-3.2-.8-5.1-.8-2.1 0-2.8.3-4.4.8L127 85.2h8.7s1.2-3.7 2.6-8.2h15c1.2 4.6 2.3 8.2 2.3 8.2zM140.3 70s2.5-8.4 2.9-9.7c1-3.4 2.5-8.8 2.5-8.8h.2s1.4 5.6 2.3 8.7c.4 1.2 2.8 9.7 2.8 9.7h-10.7v.1zm174-4.8c-2.8 0-5 2.3-5 5 0 2.8 2.2 5 5 5s5-2.2 5-5c0-2.7-2.3-5-5-5z"/>
</symbol><symbol id="ico-ready-send" viewBox="0 0 41 45.2">
    <g fill="#0b1f35">
        <path d="M36.5 45.2h-32c-2.5 0-4.5-2-4.5-4.5v-24c0-1.4 1.1-2.5 2.5-2.5H12v1H2.5c-.8 0-1.5.7-1.5 1.5v24c0 1.9 1.6 3.5 3.5 3.5h32c1.9 0 3.5-1.6 3.5-3.5v-24c0-.8-.7-1.5-1.5-1.5H29v-1h9.5c1.4 0 2.5 1.1 2.5 2.5v24c0 2.5-2 4.5-4.5 4.5z"/>
        <path d="M20.5 37.2c-3.4 0-6.2-2.6-6.5-6H.5v-1H15v.5c0 3 2.5 5.5 5.5 5.5s5.5-2.5 5.5-5.5v-.5h14.5v1H27c-.3 3.4-3.1 6-6.5 6z"/>
        <path opacity=".3" d="M12.1 8.3l.8.8L20 1.9v23.3h1V1.9l7.1 7.2.8-.8L20.5 0z"/>
    </g>
</symbol><symbol id="ico-scroll-arrow" viewBox="0 0 52 27">
    <style>
        .st0{fill:#fff}
    </style>
    <path class="st0" d="M26 27c-.3 0-.5-.1-.7-.3l-25-25C-.1 1.3-.1.7.3.3s1-.4 1.4 0L26 24.6 50.3.3c.4-.4 1-.4 1.4 0s.4 1 0 1.4l-25 25c-.2.2-.4.3-.7.3z"/>
</symbol><symbol id="ico-time" viewBox="0 0 34.1 41.5">
    <g fill="#0b1f35">
        <path d="M26 15.7L8.6 33.1c4.8 4.8 12.6 4.8 17.4 0 4.8-4.8 4.8-12.6 0-17.4z" opacity=".3"/>
        <path d="M22.2 4.7h-3.8v-1h2.8V1H13v2.7h3.2v1H12V0h10.2z"/>
        <path d="M18.4 4.4h1V8h-1z"/>
        <path d="M17.1 27.7c-1.8 0-3.3-1.5-3.3-3.3s1.5-3.3 3.3-3.3 3.3 1.5 3.3 3.3-1.5 3.3-3.3 3.3zm0-5.5c-1.2 0-2.3 1-2.3 2.3s1 2.3 2.3 2.3 2.3-1 2.3-2.3-1.1-2.3-2.3-2.3z"/>
        <path d="M18.866 21.862l7.07-7.071.708.707-7.071 7.07z"/>
        <path d="M29.312 8.64l.708-.706 2.757 2.758-.707.707z"/>
        <path d="M28.03 11.789l2.474-2.475.708.707-2.475 2.475z"/>
        <path d="M17.1 41.5C7.7 41.5 0 33.8 0 24.4 0 15 7.7 7.3 17.1 7.3s17 7.7 17 17.1c0 9.4-7.6 17.1-17 17.1zm0-33.2C8.2 8.3 1 15.6 1 24.4c0 8.9 7.2 16.1 16.1 16.1s16.1-7.2 16.1-16.1c-.1-8.8-7.3-16.1-16.1-16.1z"/>
    </g>
</symbol></svg>